<svg xmlns="http://www.w3.org/2000/svg" version="1.1" xmlns:xlink="http://www.w3.org/1999/xlink" xmlns:svgjs="http://svgjs.dev/svgjs" width="1000" height="1000" viewBox="0 0 1000 1000"><rect width="1000" height="1000" fill="#8b3c7f"></rect><g transform="matrix(0.7,0,0,0.7,149.57575757575756,394.7470775576045)"><svg viewBox="0 0 396 119" data-background-color="#8b3c7f" preserveAspectRatio="xMidYMid meet" height="300" width="1000" xmlns="http://www.w3.org/2000/svg" xmlns:xlink="http://www.w3.org/1999/xlink"><g id="tight-bounds" transform="matrix(1,0,0,1,0.2400000000000091,0.14332308897971302)"><svg viewBox="0 0 395.52 118.7133461868923" height="118.7133461868923" width="395.52"><g><svg viewBox="0 0 658.2520738913493 197.57106170637024" height="118.7133461868923" width="395.52"><g transform="matrix(1,0,0,1,260.7544738913493,48.59128748332761)"><svg viewBox="0 0 397.4975999999999 100.38848673971502" height="100.38848673971502" width="397.4975999999999"><g><svg viewBox="0 0 397.4975999999999 100.38848673971502" height="100.38848673971502" width="397.4975999999999"><g><rect width="397.4975999999999" height="5.768565608895435" x="0" y="70.76193762679445" fill="#ffffff" opacity="1" stroke-width="0" stroke="transparent" fill-opacity="1" class="rect-o-0" data-fill-palette-color="primary" rx="1%" id="o-0" data-palette-color="#ffffff"></rect></g><g transform="matrix(1,0,0,1,0.9887999999999693,0)"><svg viewBox="0 0 395.52 63.966506935687256" height="63.966506935687256" width="395.52"><g transform="matrix(1,0,0,1,0,0)"><svg width="395.52" viewBox="2.559999942779541 -35.45000076293945 309.739990234375 50.099998474121094" height="63.966506935687256" data-palette-color="#ffffff"><path d="M2.56-16.99L2.56-16.99Q2.56-19.73 3.25-22.16 3.93-24.58 5.18-26.64 6.42-28.69 8.18-30.32 9.94-31.96 12.07-33.09 14.21-34.23 16.65-34.84 19.09-35.45 21.75-35.45L21.75-35.45Q24-35.45 26.09-35.05 28.17-34.64 30.4-34.11L30.4-34.11Q30.76-34.01 31.16-33.86 31.57-33.72 31.92-33.58 32.28-33.45 32.57-33.35 32.86-33.25 33.01-33.25L33.01-33.25Q33.06-33.25 33.34-33.35 33.62-33.45 33.74-33.45L33.74-33.45 34.86-33.45Q35.16-33.45 35.16-33.03L35.16-33.03 35.16-25.07Q35.16-24.93 35.05-24.88 34.94-24.83 34.57-24.83L34.57-24.83Q34.5-24.83 34.19-24.84 33.89-24.85 33.81-24.98L33.81-24.98Q33.76-25.05 33.63-25.27 33.5-25.49 33.34-25.72 33.18-25.95 33.04-26.16 32.91-26.37 32.89-26.44L32.89-26.44Q31.96-28.27 30.86-29.53 29.76-30.79 28.43-31.57 27.1-32.35 25.54-32.7 23.97-33.06 22.14-33.06L22.14-33.06Q19.82-33.06 18.03-32.52 16.24-31.98 14.89-31.01 13.55-30.03 12.63-28.66 11.72-27.29 11.15-25.67 10.57-24.05 10.31-22.2 10.06-20.36 10.06-18.41L10.06-18.41Q10.06-16.33 10.35-14.29 10.64-12.26 11.3-10.41 11.96-8.57 13-6.99 14.04-5.42 15.5-4.26 16.97-3.1 18.92-2.44 20.87-1.78 23.34-1.78L23.34-1.78Q25.42-1.78 27.21-2.4 29-3.03 30.49-4.09 31.98-5.15 33.14-6.53 34.3-7.91 35.13-9.42L35.13-9.42Q35.18-9.55 35.24-9.56 35.3-9.57 35.42-9.57L35.42-9.57 36.67-9.57Q36.74-9.57 36.83-9.51 36.91-9.45 36.91-9.25L36.91-9.25Q36.91-9.18 36.8-8.87 36.69-8.57 36.57-8.35L36.57-8.35 33.2-0.93Q33.15-0.85 33.06-0.81 32.96-0.76 32.89-0.76L32.89-0.76Q32.3-0.76 32.07-0.85 31.84-0.95 31.59-0.95L31.59-0.95Q30.86-0.95 29.65-0.7 28.44-0.44 27.04-0.15 25.63 0.15 24.21 0.4 22.78 0.66 21.66 0.66L21.66 0.66Q19.09 0.66 16.67 0.1 14.26-0.46 12.13-1.53 10.01-2.59 8.25-4.14 6.49-5.69 5.22-7.64 3.96-9.59 3.26-11.95 2.56-14.31 2.56-16.99ZM40.62-11.4L40.62-11.4Q40.62-13.7 41.64-15.8 42.65-17.9 44.36-19.51 46.07-21.12 48.34-22.07 50.61-23.02 53.12-23.02L53.12-23.02Q55.76-23.02 58.13-22.12 60.5-21.22 62.29-19.64 64.08-18.07 65.13-15.93 66.18-13.79 66.18-11.3L66.18-11.3Q66.18-8.76 65.22-6.58 64.26-4.39 62.55-2.78 60.84-1.17 58.48-0.26 56.13 0.66 53.34 0.66L53.34 0.66Q50.58 0.66 48.25-0.28 45.92-1.22 44.22-2.84 42.53-4.47 41.57-6.67 40.62-8.86 40.62-11.4ZM46.87-12.94L46.87-12.94Q46.87-11.62 47.07-10.22 47.26-8.81 47.65-7.48 48.04-6.15 48.64-4.98 49.24-3.81 50.07-2.92 50.9-2.03 51.95-1.51 53-1 54.32-1L54.32-1Q55.76-1 56.8-1.75 57.83-2.49 58.51-3.69 59.18-4.88 59.49-6.37 59.81-7.86 59.81-9.35L59.81-9.35Q59.81-10.55 59.59-11.88 59.37-13.21 58.93-14.51 58.49-15.82 57.86-17.02 57.22-18.21 56.38-19.13 55.54-20.04 54.5-20.58 53.46-21.12 52.24-21.12L52.24-21.12Q50.88-21.12 49.86-20.37 48.85-19.63 48.19-18.44 47.53-17.26 47.2-15.81 46.87-14.36 46.87-12.94ZM72.02-17.82L72.02-17.82Q71.94-18.53 71.37-19.03 70.8-19.53 70.14-19.68L70.14-19.68Q69.97-19.73 69.76-19.74 69.55-19.75 69.38-19.79 69.21-19.82 69.1-19.91 68.99-20 68.99-20.21L68.99-20.21Q68.99-20.41 69.05-20.56 69.11-20.7 69.38-20.78L69.38-20.78 76.83-22.92Q76.97-22.97 77.13-23 77.29-23.02 77.44-23.02L77.44-23.02Q77.68-23.02 77.68-22.61L77.68-22.61 77.68-6.13Q77.68-5.3 78.06-4.63 78.44-3.96 79.05-3.49 79.66-3.03 80.44-2.78 81.22-2.54 82.05-2.54L82.05-2.54Q82.64-2.54 83.27-2.73 83.91-2.93 84.49-3.23 85.08-3.54 85.59-3.94 86.1-4.35 86.42-4.79L86.42-4.79 86.42-17.85Q86.35-18.55 85.77-19.06 85.2-19.56 84.54-19.7L84.54-19.7Q84.37-19.75 84.16-19.76 83.95-19.78 83.78-19.81 83.61-19.85 83.5-19.93 83.39-20.02 83.39-20.24L83.39-20.24Q83.39-20.43 83.45-20.58 83.52-20.73 83.78-20.8L83.78-20.8 91.23-22.92Q91.38-22.97 91.54-23 91.69-23.02 91.84-23.02L91.84-23.02Q92.08-23.02 92.08-22.8L92.08-22.8 92.08-5.96Q92.21-4.88 92.7-4.42 93.18-3.96 94.28-3.96L94.28-3.96 95.7-4.05Q95.8-4.05 95.82-3.72 95.84-3.39 95.84-3.25L95.84-3.25Q95.84-3.2 95.78-2.93 95.72-2.66 95.48-2.54L95.48-2.54 88.06 0.51Q88.01 0.54 87.81 0.6 87.62 0.66 87.59 0.66L87.59 0.66Q87.42 0.66 87.39 0.45 87.35 0.24 87.35 0.05L87.35 0.05 87.35-2.29Q87.28-2.39 87.1-2.39L87.1-2.39Q87.06-2.39 87.01-2.39 86.96-2.39 86.96-2.34L86.96-2.34 83.05-0.44Q82.51-0.24 82.05-0.06 81.59 0.12 81.14 0.29 80.68 0.46 80.17 0.56 79.66 0.66 79.05 0.66L79.05 0.66Q78.02 0.66 76.79 0.45 75.56 0.24 74.49-0.21 73.43-0.66 72.72-1.37 72.02-2.08 72.02-3.08L72.02-3.08 72.02-17.82ZM98.19-19.87L106.27-23.68Q106.36-23.73 106.47-23.78 106.58-23.83 106.63-23.83L106.63-23.83Q107.05-23.83 107.05-23.24L107.05-23.24 107.05-20.65Q107.05-20.53 107.16-20.46 107.27-20.39 107.34-20.39L107.34-20.39Q107.46-20.39 107.57-20.45 107.68-20.51 107.78-20.56L107.78-20.56Q108.76-21.14 109.54-21.55 110.32-21.95 111.03-22.18 111.74-22.41 112.49-22.51 113.25-22.61 114.2-22.61L114.2-22.61Q116.28-22.61 117.92-21.62 119.57-20.63 120.72-19.03 121.87-17.43 122.48-15.43 123.09-13.43 123.09-11.4L123.09-11.4Q123.09-9.91 122.67-8.42 122.26-6.93 121.53-5.6 120.79-4.27 119.77-3.13 118.74-1.98 117.51-1.14 116.28-0.29 114.87 0.18 113.47 0.66 111.98 0.66L111.98 0.66Q110.88 0.66 109.84 0.51 108.81 0.37 107.56 0.1L107.56 0.1Q107.15 0.1 107.11 0.39 107.07 0.68 107.05 1L107.05 1 107.05 10.94Q107.05 11.65 107.35 12.12 107.66 12.6 108.13 12.9 108.61 13.21 109.18 13.37 109.76 13.53 110.3 13.62 110.83 13.72 111.27 13.78 111.71 13.84 111.93 13.94L111.93 13.94Q112.18 14.04 112.18 14.26L112.18 14.26Q112.18 14.6 111.93 14.65L111.93 14.65 97.84 14.65Q97.6 14.6 97.6 14.26L97.6 14.26Q97.6 14.04 97.84 13.94L97.84 13.94Q98.16 13.79 98.75 13.71 99.33 13.62 99.92 13.37 100.51 13.11 100.94 12.56 101.38 12.01 101.38 10.94L101.38 10.94 101.38-16.94Q101.38-17.53 101.07-17.86 100.75-18.19 100.26-18.36 99.77-18.53 99.21-18.64 98.65-18.75 98.14-18.9L98.14-18.9Q97.99-18.95 97.91-19.03 97.82-19.12 97.82-19.38L97.82-19.38Q97.82-19.51 97.89-19.63 97.97-19.75 98.19-19.87L98.19-19.87ZM112.03-19.85L112.03-19.85Q110.71-19.85 109.62-19.48 108.54-19.12 107.41-18.29L107.41-18.29Q107.37-18.26 107.3-18.2 107.24-18.14 107.19-18.09L107.19-18.09 107.05-17.94 107.05-4.91Q107.05-4.83 107.07-4.5 107.1-4.17 107.15-3.91L107.15-3.91Q107.22-3.39 107.78-2.97 108.34-2.54 109.06-2.23 109.78-1.93 110.5-1.77 111.22-1.61 111.66-1.61L111.66-1.61Q113.27-1.61 114.38-2.2 115.5-2.78 116.18-3.77 116.86-4.76 117.17-6.08 117.47-7.4 117.47-8.89L117.47-8.89Q117.47-10.03 117.35-11.29 117.23-12.55 116.97-13.77 116.72-14.99 116.29-16.09 115.86-17.19 115.26-18.02 114.67-18.85 113.86-19.35 113.05-19.85 112.03-19.85ZM127.6-11.4L127.6-11.4Q127.6-13.7 128.62-15.8 129.63-17.9 131.34-19.51 133.05-21.12 135.32-22.07 137.59-23.02 140.1-23.02L140.1-23.02Q142.74-23.02 145.11-22.12 147.48-21.22 149.27-19.64 151.06-18.07 152.11-15.93 153.16-13.79 153.16-11.3L153.16-11.3Q153.16-8.76 152.2-6.58 151.24-4.39 149.53-2.78 147.82-1.17 145.46-0.26 143.11 0.66 140.32 0.66L140.32 0.66Q137.56 0.66 135.23-0.28 132.9-1.22 131.2-2.84 129.51-4.47 128.55-6.67 127.6-8.86 127.6-11.4ZM133.85-12.94L133.85-12.94Q133.85-11.62 134.05-10.22 134.24-8.81 134.63-7.48 135.02-6.15 135.62-4.98 136.22-3.81 137.05-2.92 137.88-2.03 138.93-1.51 139.98-1 141.3-1L141.3-1Q142.74-1 143.78-1.75 144.81-2.49 145.49-3.69 146.16-4.88 146.47-6.37 146.79-7.86 146.79-9.35L146.79-9.35Q146.79-10.55 146.57-11.88 146.35-13.21 145.91-14.51 145.47-15.82 144.84-17.02 144.2-18.21 143.36-19.13 142.52-20.04 141.48-20.58 140.44-21.12 139.22-21.12L139.22-21.12Q137.86-21.12 136.84-20.37 135.83-19.63 135.17-18.44 134.51-17.26 134.18-15.81 133.85-14.36 133.85-12.94ZM154.55-19.87L162.63-23.68Q162.73-23.73 162.84-23.78 162.95-23.83 163-23.83L163-23.83Q163.42-23.83 163.42-23.24L163.42-23.24 163.42-19.43Q163.49-19.19 163.61-19.19L163.61-19.19Q163.73-19.19 163.81-19.2 163.88-19.21 164-19.29L164-19.29Q165.56-20.09 166.65-20.64 167.74-21.19 168.53-21.57 169.32-21.95 169.95-22.16 170.57-22.36 171.2-22.47 171.84-22.58 172.59-22.61 173.35-22.63 174.45-22.63L174.45-22.63Q175.65-22.63 176.53-22.12 177.4-21.61 178-20.76 178.6-19.92 178.98-18.84 179.36-17.75 179.55-16.61 179.75-15.48 179.82-14.37 179.89-13.26 179.89-12.35L179.89-12.35Q179.89-11.5 179.86-10.77 179.82-10.03 179.78-9.17 179.75-8.3 179.71-7.2 179.68-6.1 179.68-4.54L179.68-4.54Q179.68-3.81 179.94-3.32 180.21-2.83 180.64-2.51 181.07-2.2 181.58-2.04 182.09-1.88 182.58-1.78 183.07-1.68 183.47-1.62 183.87-1.56 184.09-1.46L184.09-1.46Q184.19-1.42 184.26-1.15 184.34-0.88 184.34-0.76L184.34-0.76Q184.34-0.61 184.29-0.33 184.24-0.05 184.09 0L184.09 0 170.47 0Q170.32-0.05 170.28-0.33 170.23-0.61 170.23-0.76L170.23-0.76Q170.23-0.88 170.3-1.15 170.37-1.42 170.47-1.46L170.47-1.46Q170.79-1.61 171.31-1.7 171.84-1.78 172.39-2.08 172.94-2.37 173.39-2.97 173.84-3.56 173.99-4.74L173.99-4.74Q174.04-5.1 174.07-5.42 174.11-5.74 174.13-6.07 174.16-6.4 174.17-6.79 174.18-7.18 174.18-7.69L174.18-7.69Q174.18-8.79 174.16-10.03 174.13-11.28 174.13-12.82L174.13-12.82Q174.13-14.01 174.02-15.19 173.91-16.36 173.49-17.29 173.06-18.21 172.23-18.8 171.4-19.38 169.93-19.38L169.93-19.38Q169.42-19.38 169.02-19.32 168.62-19.26 168.04-19.04 167.47-18.82 166.54-18.38 165.61-17.94 164.05-17.19L164.05-17.19Q163.85-17.07 163.65-16.91 163.44-16.75 163.42-16.5L163.42-16.5 163.42-4.54Q163.42-3.44 163.85-2.87 164.29-2.29 164.88-2.04 165.47-1.78 166.05-1.7 166.64-1.61 166.96-1.46L166.96-1.46Q167.05-1.42 167.13-1.15 167.2-0.88 167.2-0.76L167.2-0.76Q167.2-0.61 167.15-0.33 167.1-0.05 166.96 0L166.96 0 154.21 0Q154.06-0.05 154.02-0.33 153.97-0.61 153.97-0.76L153.97-0.76Q153.97-0.88 154.04-1.15 154.11-1.42 154.21-1.46L154.21-1.46Q154.53-1.61 155.11-1.7 155.7-1.78 156.29-2.04 156.87-2.29 157.31-2.87 157.75-3.44 157.75-4.54L157.75-4.54 157.75-16.94Q157.75-17.53 157.43-17.86 157.12-18.19 156.63-18.36 156.14-18.53 155.58-18.64 155.02-18.75 154.5-18.9L154.5-18.9Q154.36-18.95 154.27-19.03 154.19-19.12 154.19-19.38L154.19-19.38Q154.19-19.51 154.26-19.63 154.33-19.75 154.55-19.87L154.55-19.87ZM203.13-0.9L201.57-0.66Q201.25-0.66 201.18-1.17L201.18-1.17Q200.91-3.47 200.76-4.74 200.62-6.01 200.56-6.64 200.5-7.28 200.48-7.46 200.47-7.64 200.47-7.71L200.47-7.71Q200.47-7.98 200.71-8.3 200.96-8.62 201.3-8.62L201.3-8.62Q201.55-8.62 201.83-8.33 202.11-8.03 202.36-7.64 202.62-7.25 202.8-6.86 202.99-6.47 203.03-6.3L203.03-6.3Q203.67-4.96 204.41-4.04 205.16-3.13 206.11-2.58 207.06-2.03 208.26-1.78 209.46-1.54 210.99-1.54L210.99-1.54Q213.61-1.54 215.06-2.78 216.51-4.03 216.51-6.79L216.51-6.79Q216.51-8.37 215.82-9.67 215.12-10.96 214-12.07 212.87-13.18 211.43-14.18 209.99-15.19 208.48-16.21 206.96-17.24 205.52-18.35 204.08-19.46 202.96-20.8 201.84-22.14 201.14-23.78 200.45-25.42 200.45-27.47L200.45-27.47Q200.45-28.71 200.9-29.79 201.35-30.86 202.11-31.74 202.86-32.62 203.88-33.31 204.89-34.01 206.04-34.48 207.18-34.96 208.37-35.21 209.55-35.45 210.68-35.45L210.68-35.45Q211.58-35.45 212.49-35.29 213.41-35.13 214.3-34.91 215.19-34.69 216.1-34.44 217-34.18 217.88-33.96L217.88-33.96 219.49-34.11Q219.71-34.11 219.77-33.92 219.83-33.74 219.86-33.59L219.86-33.59 220.56-27.86Q220.56-27.73 220.25-27.69 219.93-27.64 219.76-27.64L219.76-27.64Q219.61-27.64 219.32-27.67 219.03-27.71 218.98-27.76L218.98-27.76Q218.9-27.83 218.79-28.06 218.68-28.3 218.56-28.58 218.44-28.86 218.31-29.15 218.17-29.44 218.02-29.66L218.02-29.66Q216.85-31.47 215.02-32.36 213.19-33.25 210.99-33.25L210.99-33.25Q210.04-33.25 209.21-33.03 208.38-32.81 207.77-32.34 207.16-31.86 206.81-31.13 206.45-30.4 206.45-29.37L206.45-29.37Q206.45-27.88 207.15-26.67 207.84-25.46 208.98-24.4 210.11-23.34 211.57-22.34 213.02-21.34 214.52-20.3 216.02-19.26 217.48-18.09 218.93-16.92 220.06-15.5 221.2-14.09 221.89-12.35 222.59-10.62 222.59-8.45L222.59-8.45Q222.59-7.01 222.09-5.76 221.59-4.52 220.73-3.5 219.88-2.49 218.73-1.71 217.59-0.93 216.28-0.4 214.97 0.12 213.59 0.39 212.21 0.66 210.9 0.66L210.9 0.66Q209.24 0.66 208 0.42 206.77 0.17 205.88-0.13 204.99-0.44 204.38-0.68 203.77-0.93 203.35-0.93L203.35-0.93Q203.21-0.93 203.13-0.9L203.13-0.9ZM228.47-5.18L228.47-18.82 226.64-18.82Q226.3-18.82 226.1-18.99 225.91-19.17 225.88-19.36L225.88-19.36Q225.88-19.48 225.93-19.63 225.98-19.78 226.05-19.82L226.05-19.82Q226.54-20.14 227.12-20.57 227.69-21 228.25-21.46 228.81-21.92 229.35-22.39 229.89-22.85 230.3-23.24L230.3-23.24Q230.55-23.51 230.97-24.05 231.4-24.58 231.95-25.11 232.5-25.63 233.13-26.04 233.77-26.44 234.43-26.44L234.43-26.44Q234.57-26.44 234.77-26.34 234.97-26.25 234.97-26.1L234.97-26.1Q234.97-25.93 234.88-25.57 234.79-25.22 234.67-24.78 234.55-24.34 234.4-23.85 234.26-23.36 234.14-22.9L234.14-22.9Q234.14-22.71 234.2-22.58 234.26-22.46 234.53-22.44L234.53-22.44 240.75-22.44Q241.14-22.44 241.29-22.3 241.44-22.17 241.51-21.95L241.51-21.95Q241.56-21.83 241.61-21.45 241.65-21.07 241.7-20.62 241.75-20.17 241.79-19.71 241.83-19.26 241.83-18.97L241.83-18.97Q241.83-18.82 241.63-18.82L241.63-18.82 234.28-18.82Q234.16-18.82 234.15-18.77 234.14-18.73 234.14-18.6L234.14-18.6 234.14-6.47Q234.14-5.69 234.33-5.1 234.53-4.52 234.83-4.13 235.14-3.74 235.53-3.54 235.92-3.34 236.31-3.34L236.31-3.34Q237.43-3.34 238.14-3.67 238.85-4 239.36-4.39 239.87-4.79 240.26-5.11 240.65-5.44 241.14-5.44L241.14-5.44Q241.48-5.44 241.54-5.18 241.61-4.91 241.61-4.76L241.61-4.76Q241.61-4.44 241.52-4.26 241.44-4.08 241.39-3.98L241.39-3.98Q241.36-3.93 241.12-3.56 240.87-3.2 240.46-2.69 240.04-2.17 239.45-1.59 238.85-1 238.11-0.5 237.38 0 236.52 0.33 235.65 0.66 234.7 0.66L234.7 0.66Q233.38 0.66 232.23 0.17 231.08-0.32 230.25-1.14 229.42-1.95 228.95-3 228.47-4.05 228.47-5.18L228.47-5.18ZM244.26-11.4L244.26-11.4Q244.26-13.7 245.28-15.8 246.29-17.9 248-19.51 249.71-21.12 251.98-22.07 254.25-23.02 256.76-23.02L256.76-23.02Q259.4-23.02 261.77-22.12 264.14-21.22 265.93-19.64 267.73-18.07 268.78-15.93 269.83-13.79 269.83-11.3L269.83-11.3Q269.83-8.76 268.86-6.58 267.9-4.39 266.19-2.78 264.48-1.17 262.12-0.26 259.77 0.66 256.98 0.66L256.98 0.66Q254.23 0.66 251.89-0.28 249.56-1.22 247.87-2.84 246.17-4.47 245.22-6.67 244.26-8.86 244.26-11.4ZM250.51-12.94L250.51-12.94Q250.51-11.62 250.71-10.22 250.91-8.81 251.3-7.48 251.69-6.15 252.28-4.98 252.88-3.81 253.71-2.92 254.54-2.03 255.59-1.51 256.64-1 257.96-1L257.96-1Q259.4-1 260.44-1.75 261.48-2.49 262.15-3.69 262.82-4.88 263.14-6.37 263.45-7.86 263.45-9.35L263.45-9.35Q263.45-10.55 263.23-11.88 263.01-13.21 262.58-14.51 262.14-15.82 261.5-17.02 260.87-18.21 260.02-19.13 259.18-20.04 258.14-20.58 257.11-21.12 255.89-21.12L255.89-21.12Q254.52-21.12 253.51-20.37 252.49-19.63 251.83-18.44 251.17-17.26 250.84-15.81 250.51-14.36 250.51-12.94ZM273-19.12L281.08-22.92Q281.18-22.97 281.29-23.02 281.4-23.07 281.44-23.07L281.44-23.07Q281.86-23.07 281.86-22.49L281.86-22.49 281.86-18.33Q281.86-18.26 281.87-18.15 281.88-18.04 282.01-18.04L282.01-18.04Q282.13-18.04 282.2-18.13 282.27-18.21 282.35-18.29L282.35-18.29Q282.79-18.87 283.34-19.59 283.89-20.31 284.51-20.95 285.13-21.58 285.79-22.01 286.45-22.44 287.08-22.44L287.08-22.44Q287.52-22.44 288.23-22.19 288.94-21.95 289.61-21.62 290.28-21.29 290.76-20.94 291.23-20.58 291.23-20.36L291.23-20.36Q291.23-20.14 291.02-19.54 290.8-18.95 290.47-18.33 290.14-17.72 289.76-17.25 289.38-16.77 289.06-16.77L289.06-16.77 289.01-16.77Q288.57-16.92 288.12-17.13 287.67-17.33 287.21-17.54 286.74-17.75 286.27-17.88 285.79-18.02 285.3-18.02L285.3-18.02Q284.57-18.02 283.93-17.71 283.3-17.41 282.85-16.93 282.4-16.46 282.13-15.87 281.86-15.28 281.86-14.75L281.86-14.75 281.86-4.44Q281.86-3.74 282.16-3.26 282.47-2.78 282.95-2.48 283.42-2.17 284-2.01 284.57-1.86 285.11-1.76 285.64-1.66 286.08-1.6 286.52-1.54 286.74-1.44L286.74-1.44Q286.99-1.34 286.99-0.76L286.99-0.76Q286.99-0.05 286.74 0L286.74 0 272.66 0Q272.41-0.05 272.41-0.76L272.41-0.76Q272.41-1.34 272.66-1.44L272.66-1.44Q272.97-1.59 273.56-1.67 274.14-1.76 274.73-2.01 275.32-2.27 275.76-2.82 276.2-3.37 276.2-4.44L276.2-4.44 276.2-16.19Q276.2-16.77 275.88-17.1 275.56-17.43 275.07-17.6 274.58-17.77 274.02-17.88 273.46-17.99 272.95-18.14L272.95-18.14Q272.8-18.19 272.72-18.27 272.63-18.36 272.63-18.63L272.63-18.63Q272.63-18.75 272.7-18.87 272.78-18.99 273-19.12L273-19.12ZM291.67-9.89L291.67-9.89Q291.67-12.74 292.48-15.15 293.28-17.55 294.8-19.31 296.31-21.07 298.5-22.05 300.68-23.02 303.46-23.02L303.46-23.02Q304.29-23.02 304.95-22.91 305.61-22.8 306.16-22.62 306.71-22.44 307.19-22.18 307.66-21.92 308.15-21.63L308.15-21.63Q308.71-21.34 309.43-20.58 310.15-19.82 310.79-18.82 311.42-17.82 311.86-16.69 312.3-15.55 312.3-14.5L312.3-14.5Q312.3-14.16 312.17-13.76 312.03-13.35 311.72-13.35L311.72-13.35 297.31-13.35Q297.07-13.35 296.98-12.92 296.9-12.48 296.9-11.84L296.9-11.84Q296.9-9.69 297.52-8.02 298.14-6.35 299.19-5.19 300.24-4.03 301.61-3.43 302.98-2.83 304.49-2.83L304.49-2.83Q305.44-2.83 306.32-3.09 307.2-3.34 308-3.76 308.81-4.17 309.52-4.69 310.23-5.2 310.86-5.71L310.86-5.71Q311.01-5.76 311.06-5.76L311.06-5.76Q311.13-5.76 311.25-5.64L311.25-5.64Q311.47-5.44 311.69-5.19 311.91-4.93 312.03-4.76L312.03-4.76Q312.11-4.69 312.11-4.61L312.11-4.61Q312.11-4.54 312.01-4.44L312.01-4.44Q311.2-3.49 310.03-2.58 308.86-1.66 307.53-0.94 306.2-0.22 304.81 0.22 303.41 0.66 302.17 0.66L302.17 0.66Q299.66 0.66 297.7-0.26 295.75-1.17 294.41-2.66 293.06-4.15 292.37-6.04 291.67-7.93 291.67-9.89ZM298.02-15.23L306-15.23Q306.64-15.23 306.64-15.8L306.64-15.8Q306.64-16.75 306.33-17.59 306.03-18.43 305.47-19.08 304.9-19.73 304.11-20.09 303.32-20.46 302.34-20.46L302.34-20.46Q301.17-20.46 300.29-19.96 299.41-19.46 298.8-18.75 298.19-18.04 297.89-17.29 297.58-16.53 297.58-15.99L297.58-15.99Q297.58-15.58 297.7-15.41 297.82-15.23 298.02-15.23L298.02-15.23Z" opacity="1" transform="matrix(1,0,0,1,0,0)" fill="#ffffff" class="undefined-text-0" data-fill-palette-color="primary" id="text-0"></path></svg></g></svg></g><g transform="matrix(1,0,0,1,0,83.32593392679706)"><svg viewBox="0 0 232.209792 17.062552812917957" height="17.062552812917957" width="232.209792"><g transform="matrix(1,0,0,1,0,0)"><svg width="232.209792" viewBox="3.0999999046325684 -36 613.0400390625 45.04999923706055" height="17.062552812917957" data-palette-color="#ffffff"><path d="M26.2-15.15L14.6-15.15 14.6-17.5 28.7-17.5 28.7-5.95Q28.7-3.75 28.83-2.1 28.95-0.45 29 0L29 0 27.15 0Q27.05-0.3 26.83-1.48 26.6-2.65 26.35-4.6L26.35-4.6Q24.85-1.95 22.13-0.73 19.4 0.5 16 0.5L16 0.5Q12 0.5 9.18-0.95 6.35-2.4 4.73-6.15 3.1-9.9 3.1-16.5L3.1-16.5 3.1-17.8Q3.1-24.4 4.73-28.15 6.35-31.9 9.18-33.35 12-34.8 16-34.8L16-34.8Q21.6-34.8 25.15-32 28.7-29.2 28.7-22.45L28.7-22.45 26.05-22.45Q26.05-27.95 23.25-30.18 20.45-32.4 16-32.4L16-32.4Q11.1-32.4 8.45-29.38 5.8-26.35 5.8-18.4L5.8-18.4 5.8-15.9Q5.8-7.95 8.45-4.93 11.1-1.9 16-1.9L16-1.9Q26.2-1.9 26.2-12.55L26.2-12.55 26.2-15.15ZM57.05-9.45Q57.05-6.35 55.72-4.1 54.4-1.85 52.15-0.68 49.9 0.5 47.1 0.5L47.1 0.5Q43.95 0.5 41.52-1.03 39.1-2.55 37.75-5.45 36.4-8.35 36.4-12.4L36.4-12.4 36.4-13.15Q36.4-17.2 37.72-20.1 39.05-23 41.47-24.53 43.9-26.05 47.05-26.05L47.05-26.05Q49.9-26.05 52.17-24.83 54.45-23.6 55.75-21.28 57.05-18.95 57.05-15.7L57.05-15.7 57.05-12.5 38.95-12.5 38.95-12.1Q38.95-7.1 41.22-4.45 43.5-1.8 47.1-1.8L47.1-1.8Q50.3-1.8 52.42-3.75 54.55-5.7 54.55-9.45L54.55-9.45 57.05-9.45ZM47.05-23.75Q43.7-23.75 41.5-21.45 39.3-19.15 39-14.8L39-14.8 54.55-14.8 54.55-15.7Q54.55-19.6 52.42-21.68 50.3-23.75 47.05-23.75L47.05-23.75ZM75.1-0.35Q74.45 0.05 73.52 0.28 72.6 0.5 71.7 0.5L71.7 0.5Q69.4 0.5 68-0.9 66.6-2.3 66.6-5.05L66.6-5.05 66.6-23.25 63.8-23.25 63.8-25.55 66.6-25.55 67.5-33.7 69.15-33.7 69.15-25.55 75.1-25.55 75.1-23.25 69.15-23.25 69.15-5.15Q69.15-3.15 69.92-2.48 70.7-1.8 72-1.8L72-1.8Q72.55-1.8 73.5-2.05 74.45-2.3 75.1-2.6L75.1-2.6 75.1-0.35ZM119.84-12.55Q119.84-5.5 116.29-2.5 112.74 0.5 107.14 0.5L107.14 0.5Q103.14 0.5 100.32-0.95 97.49-2.4 95.87-6.15 94.24-9.9 94.24-16.5L94.24-16.5 94.24-17.8Q94.24-24.4 95.87-28.15 97.49-31.9 100.32-33.35 103.14-34.8 107.14-34.8L107.14-34.8Q112.79-34.8 116.32-31.85 119.84-28.9 119.84-21.7L119.84-21.7 117.19-21.7Q117.19-27.65 114.44-30.03 111.69-32.4 107.14-32.4L107.14-32.4Q102.24-32.4 99.59-29.38 96.94-26.35 96.94-18.4L96.94-18.4 96.94-15.9Q96.94-7.95 99.59-4.93 102.24-1.9 107.14-1.9L107.14-1.9Q117.19-1.9 117.19-12.55L117.19-12.55 119.84-12.55ZM137.69 0.5Q134.54 0.5 132.09-1.03 129.64-2.55 128.26-5.45 126.89-8.35 126.89-12.4L126.89-12.4 126.89-13.15Q126.89-17.2 128.26-20.1 129.64-23 132.09-24.53 134.54-26.05 137.69-26.05L137.69-26.05Q140.84-26.05 143.29-24.53 145.74-23 147.11-20.1 148.49-17.2 148.49-13.15L148.49-13.15 148.49-12.4Q148.49-8.35 147.11-5.45 145.74-2.55 143.29-1.03 140.84 0.5 137.69 0.5L137.69 0.5ZM137.69-1.8Q141.34-1.8 143.64-4.45 145.94-7.1 145.94-12.1L145.94-12.1 145.94-13.45Q145.94-18.45 143.64-21.1 141.34-23.75 137.69-23.75L137.69-23.75Q134.04-23.75 131.74-21.1 129.44-18.45 129.44-13.45L129.44-13.45 129.44-12.1Q129.44-7.1 131.74-4.45 134.04-1.8 137.69-1.8L137.69-1.8ZM174.49-3.8Q173.19-1.8 170.99-0.65 168.79 0.5 166.24 0.5L166.24 0.5Q162.04 0.5 159.46-1.9 156.89-4.3 156.89-9.1L156.89-9.1 156.89-25.55 159.44-25.55 159.44-9.85Q159.44-5.8 161.31-3.8 163.19-1.8 166.64-1.8L166.64-1.8Q168.84-1.8 170.64-2.85 172.44-3.9 173.46-5.75 174.49-7.6 174.49-9.85L174.49-9.85 174.49-25.55 177.04-25.55 177.04-3.45Q177.04-1.8 178.39-1.8L178.39-1.8Q179.54-1.8 180.89-2.6L180.89-2.6 180.89-0.45Q179.49 0.5 177.69 0.5L177.69 0.5Q175.99 0.5 175.24-0.78 174.49-2.05 174.49-3.8L174.49-3.8ZM190.28-21.7Q193.08-26.05 198.73-26.05L198.73-26.05Q203.23-26.05 206.06-22.68 208.88-19.3 208.88-12.55L208.88-12.55 208.88-12Q208.88-8.05 207.53-5.23 206.18-2.4 203.88-0.95 201.58 0.5 198.73 0.5L198.73 0.5Q196.08 0.5 193.96-0.58 191.83-1.65 190.58-3.55L190.58-3.55 190.58 9.05 188.03 9.05 188.03-25.55 189.73-25.55 190.28-21.7ZM190.53-12.1Q190.53-6.95 192.76-4.38 194.98-1.8 198.48-1.8L198.48-1.8Q201.93-1.8 204.13-4.4 206.33-7 206.33-12.1L206.33-12.1 206.33-12.65Q206.33-18.5 204.18-21.13 202.03-23.75 198.48-23.75L198.48-23.75Q194.88-23.75 192.71-21.18 190.53-18.6 190.53-12.7L190.53-12.7 190.53-12.1ZM226.43 0.5Q223.28 0.5 220.83-1.03 218.38-2.55 217.01-5.45 215.63-8.35 215.63-12.4L215.63-12.4 215.63-13.15Q215.63-17.2 217.01-20.1 218.38-23 220.83-24.53 223.28-26.05 226.43-26.05L226.43-26.05Q229.58-26.05 232.03-24.53 234.48-23 235.86-20.1 237.23-17.2 237.23-13.15L237.23-13.15 237.23-12.4Q237.23-8.35 235.86-5.45 234.48-2.55 232.03-1.03 229.58 0.5 226.43 0.5L226.43 0.5ZM226.43-1.8Q230.08-1.8 232.38-4.45 234.68-7.1 234.68-12.1L234.68-12.1 234.68-13.45Q234.68-18.45 232.38-21.1 230.08-23.75 226.43-23.75L226.43-23.75Q222.78-23.75 220.48-21.1 218.18-18.45 218.18-13.45L218.18-13.45 218.18-12.1Q218.18-7.1 220.48-4.45 222.78-1.8 226.43-1.8L226.43-1.8ZM263.48 0L263.48-15.7Q263.48-19.75 261.6-21.75 259.73-23.75 256.28-23.75L256.28-23.75Q254.08-23.75 252.28-22.7 250.48-21.65 249.45-19.8 248.43-17.95 248.43-15.7L248.43-15.7 248.43 0 245.88 0 245.88-25.55 247.58-25.55 248.13-21.75Q249.43-23.75 251.7-24.9 253.98-26.05 256.53-26.05L256.53-26.05Q260.73-26.05 263.35-23.63 265.98-21.2 265.98-16.45L265.98-16.45 265.98 0 263.48 0ZM276.18-7.85Q276.13-7.6 276.13-7.15L276.13-7.15Q276.13-4.6 278.35-3.2 280.57-1.8 284.43-1.8L284.43-1.8Q287.88-1.8 289.77-3.18 291.68-4.55 291.68-6.8L291.68-6.8Q291.68-8.55 290.6-9.55 289.52-10.55 287.95-11.08 286.38-11.6 283.73-12.1L283.73-12.1Q280.68-12.7 278.82-13.33 276.98-13.95 275.68-15.3 274.38-16.65 274.38-19.05L274.38-19.05Q274.38-22.15 276.88-24.1 279.38-26.05 284.27-26.05L284.27-26.05Q287.48-26.05 289.57-25 291.68-23.95 292.65-22.38 293.63-20.8 293.63-19.15L293.63-19.15 293.57-18.45 291.07-18.45 291.07-19.1Q291.07-20.7 289.65-22.23 288.23-23.75 283.82-23.75L283.82-23.75Q279.57-23.75 278.25-22.3 276.93-20.85 276.93-19.15L276.93-19.15Q276.93-17.7 277.93-16.8 278.93-15.9 280.43-15.43 281.93-14.95 284.57-14.4L284.57-14.4Q287.63-13.75 289.57-13.1 291.52-12.45 292.88-11.05 294.23-9.65 294.23-7.3L294.23-7.3Q294.23-3.2 291.4-1.35 288.57 0.5 283.77 0.5L283.77 0.5Q280.13 0.5 277.85-0.65 275.57-1.8 274.6-3.45 273.63-5.1 273.63-6.6L273.63-6.6Q273.63-7.2 273.65-7.5 273.68-7.8 273.68-7.85L273.68-7.85 276.18-7.85ZM301.57 5.05Q301.77 4.25 302.17 2.53 302.57 0.8 302.72 0L302.72 0 301.52 0 301.52-3.45 304.77-3.45 304.77-0.55 303.27 5.05 301.57 5.05ZM348.37-15.15L336.77-15.15 336.77-17.5 350.87-17.5 350.87-5.95Q350.87-3.75 350.99-2.1 351.12-0.45 351.17 0L351.17 0 349.32 0Q349.22-0.3 348.99-1.48 348.77-2.65 348.52-4.6L348.52-4.6Q347.02-1.95 344.29-0.73 341.57 0.5 338.17 0.5L338.17 0.5Q334.17 0.5 331.34-0.95 328.52-2.4 326.89-6.15 325.27-9.9 325.27-16.5L325.27-16.5 325.27-17.8Q325.27-24.4 326.89-28.15 328.52-31.9 331.34-33.35 334.17-34.8 338.17-34.8L338.17-34.8Q343.77-34.8 347.32-32 350.87-29.2 350.87-22.45L350.87-22.45 348.22-22.45Q348.22-27.95 345.42-30.18 342.62-32.4 338.17-32.4L338.17-32.4Q333.27-32.4 330.62-29.38 327.97-26.35 327.97-18.4L327.97-18.4 327.97-15.9Q327.97-7.95 330.62-4.93 333.27-1.9 338.17-1.9L338.17-1.9Q348.37-1.9 348.37-12.55L348.37-12.55 348.37-15.15ZM379.21-9.45Q379.21-6.35 377.89-4.1 376.56-1.85 374.31-0.68 372.06 0.5 369.26 0.5L369.26 0.5Q366.12 0.5 363.69-1.03 361.26-2.55 359.91-5.45 358.56-8.35 358.56-12.4L358.56-12.4 358.56-13.15Q358.56-17.2 359.89-20.1 361.21-23 363.64-24.53 366.06-26.05 369.21-26.05L369.21-26.05Q372.06-26.05 374.34-24.83 376.62-23.6 377.91-21.28 379.21-18.95 379.21-15.7L379.21-15.7 379.21-12.5 361.12-12.5 361.12-12.1Q361.12-7.1 363.39-4.45 365.66-1.8 369.26-1.8L369.26-1.8Q372.46-1.8 374.59-3.75 376.71-5.7 376.71-9.45L376.71-9.45 379.21-9.45ZM369.21-23.75Q365.87-23.75 363.66-21.45 361.46-19.15 361.16-14.8L361.16-14.8 376.71-14.8 376.71-15.7Q376.71-19.6 374.59-21.68 372.46-23.75 369.21-23.75L369.21-23.75ZM397.26-0.35Q396.61 0.05 395.69 0.28 394.76 0.5 393.86 0.5L393.86 0.5Q391.56 0.5 390.16-0.9 388.76-2.3 388.76-5.05L388.76-5.05 388.76-23.25 385.96-23.25 385.96-25.55 388.76-25.55 389.66-33.7 391.31-33.7 391.31-25.55 397.26-25.55 397.26-23.25 391.31-23.25 391.31-5.15Q391.31-3.15 392.09-2.48 392.86-1.8 394.16-1.8L394.16-1.8Q394.71-1.8 395.66-2.05 396.61-2.3 397.26-2.6L397.26-2.6 397.26-0.35ZM417.91 0L417.91-34.3 428.91-34.3Q435.06-34.3 438.63-30.58 442.21-26.85 442.21-17.8L442.21-17.8 442.21-16.55Q442.21-7.55 438.61-3.78 435.01 0 428.91 0L428.91 0 417.91 0ZM428.91-2.4Q433.81-2.4 436.66-5.45 439.51-8.5 439.51-16.1L439.51-16.1 439.51-18.25Q439.51-31.9 428.91-31.9L428.91-31.9 420.61-31.9 420.61-2.4 428.91-2.4ZM450.86-33.3L450.86-36 453.81-36 453.81-33.3 450.86-33.3ZM453.61 0L451.06 0 451.06-25.55 453.61-25.55 453.61 0ZM464.6-7.85Q464.55-7.6 464.55-7.15L464.55-7.15Q464.55-4.6 466.78-3.2 469-1.8 472.85-1.8L472.85-1.8Q476.3-1.8 478.2-3.18 480.1-4.55 480.1-6.8L480.1-6.8Q480.1-8.55 479.03-9.55 477.95-10.55 476.38-11.08 474.8-11.6 472.15-12.1L472.15-12.1Q469.1-12.7 467.25-13.33 465.4-13.95 464.1-15.3 462.8-16.65 462.8-19.05L462.8-19.05Q462.8-22.15 465.3-24.1 467.8-26.05 472.7-26.05L472.7-26.05Q475.9-26.05 478-25 480.1-23.95 481.08-22.38 482.05-20.8 482.05-19.15L482.05-19.15 482-18.45 479.5-18.45 479.5-19.1Q479.5-20.7 478.08-22.23 476.65-23.75 472.25-23.75L472.25-23.75Q468-23.75 466.68-22.3 465.35-20.85 465.35-19.15L465.35-19.15Q465.35-17.7 466.35-16.8 467.35-15.9 468.85-15.43 470.35-14.95 473-14.4L473-14.4Q476.05-13.75 478-13.1 479.95-12.45 481.3-11.05 482.65-9.65 482.65-7.3L482.65-7.3Q482.65-3.2 479.83-1.35 477 0.5 472.2 0.5L472.2 0.5Q468.55 0.5 466.28-0.65 464-1.8 463.03-3.45 462.05-5.1 462.05-6.6L462.05-6.6Q462.05-7.2 462.08-7.5 462.1-7.8 462.1-7.85L462.1-7.85 464.6-7.85ZM509.7-9.85Q509.7-6.6 508.4-4.28 507.1-1.95 504.85-0.73 502.6 0.5 499.75 0.5L499.75 0.5Q496.6 0.5 494.18-1.03 491.75-2.55 490.4-5.45 489.05-8.35 489.05-12.4L489.05-12.4 489.05-13.15Q489.05-17.2 490.38-20.1 491.7-23 494.13-24.53 496.55-26.05 499.7-26.05L499.7-26.05Q502.55-26.05 504.82-24.83 507.1-23.6 508.4-21.28 509.7-18.95 509.7-15.7L509.7-15.7 507.2-15.7Q507.2-19.6 505.07-21.68 502.95-23.75 499.7-23.75L499.7-23.75Q496.1-23.75 493.85-21.1 491.6-18.45 491.6-13.45L491.6-13.45 491.6-12.1Q491.6-7.1 493.88-4.45 496.15-1.8 499.75-1.8L499.75-1.8Q503-1.8 505.1-3.85 507.2-5.9 507.2-9.85L507.2-9.85 509.7-9.85ZM527.1 0.5Q523.95 0.5 521.5-1.03 519.05-2.55 517.67-5.45 516.3-8.35 516.3-12.4L516.3-12.4 516.3-13.15Q516.3-17.2 517.67-20.1 519.05-23 521.5-24.53 523.95-26.05 527.1-26.05L527.1-26.05Q530.25-26.05 532.7-24.53 535.15-23 536.52-20.1 537.9-17.2 537.9-13.15L537.9-13.15 537.9-12.4Q537.9-8.35 536.52-5.45 535.15-2.55 532.7-1.03 530.25 0.5 527.1 0.5L527.1 0.5ZM527.1-1.8Q530.75-1.8 533.05-4.45 535.35-7.1 535.35-12.1L535.35-12.1 535.35-13.45Q535.35-18.45 533.05-21.1 530.75-23.75 527.1-23.75L527.1-23.75Q523.45-23.75 521.15-21.1 518.85-18.45 518.85-13.45L518.85-13.45 518.85-12.1Q518.85-7.1 521.15-4.45 523.45-1.8 527.1-1.8L527.1-1.8ZM563.89-3.8Q562.6-1.8 560.39-0.65 558.19 0.5 555.64 0.5L555.64 0.5Q551.44 0.5 548.87-1.9 546.29-4.3 546.29-9.1L546.29-9.1 546.29-25.55 548.85-25.55 548.85-9.85Q548.85-5.8 550.72-3.8 552.6-1.8 556.04-1.8L556.04-1.8Q558.25-1.8 560.04-2.85 561.85-3.9 562.87-5.75 563.89-7.6 563.89-9.85L563.89-9.85 563.89-25.55 566.44-25.55 566.44-3.45Q566.44-1.8 567.79-1.8L567.79-1.8Q568.94-1.8 570.29-2.6L570.29-2.6 570.29-0.45Q568.89 0.5 567.1 0.5L567.1 0.5Q565.39 0.5 564.64-0.78 563.89-2.05 563.89-3.8L563.89-3.8ZM595.04 0L595.04-15.7Q595.04-19.75 593.17-21.75 591.29-23.75 587.84-23.75L587.84-23.75Q585.64-23.75 583.84-22.7 582.04-21.65 581.02-19.8 579.99-17.95 579.99-15.7L579.99-15.7 579.99 0 577.44 0 577.44-25.55 579.14-25.55 579.69-21.75Q580.99-23.75 583.27-24.9 585.54-26.05 588.09-26.05L588.09-26.05Q592.29-26.05 594.92-23.63 597.54-21.2 597.54-16.45L597.54-16.45 597.54 0 595.04 0ZM616.14-0.35Q615.49 0.05 614.56 0.28 613.64 0.5 612.74 0.5L612.74 0.5Q610.44 0.5 609.04-0.9 607.64-2.3 607.64-5.05L607.64-5.05 607.64-23.25 604.84-23.25 604.84-25.55 607.64-25.55 608.54-33.7 610.19-33.7 610.19-25.55 616.14-25.55 616.14-23.25 610.19-23.25 610.19-5.15Q610.19-3.15 610.96-2.48 611.74-1.8 613.04-1.8L613.04-1.8Q613.59-1.8 614.54-2.05 615.49-2.3 616.14-2.6L616.14-2.6 616.14-0.35Z" opacity="1" transform="matrix(1,0,0,1,0,0)" fill="#ffffff" class="undefined-text-1" data-fill-palette-color="secondary" id="text-1"></path></svg></g></svg></g></svg></g></svg></g><g><svg viewBox="0 0 245.65351679999995 197.57106170637024" height="197.57106170637024" width="245.65351679999995"><g><svg xmlns="http://www.w3.org/2000/svg" xmlns:xlink="http://www.w3.org/1999/xlink" version="1.1" x="0" y="0" viewBox="0 9.78600025177002 100.0003433227539 80.42699432373047" enable-background="new 0 0 100 100" xml:space="preserve" width="245.65351679999995" height="197.57106170637024" class="icon-icon-0" data-fill-palette-color="accent" id="icon-0"><path d="M49.942 52.994c13.552-0.488 27.103-0.977 40.653-1.465-2.527-4.177-3.159-7.831-7.989-8.461-7.229-0.94-14.458-1.883-21.688-2.826-14.023-1.827-28.05-3.654-42.075-5.48C20.101 36.792 39.724 53.361 49.942 52.994z" fill="#ffffff" data-fill-palette-color="accent"></path><path d="M0 9.786c4.391 7.257 26.615 23.072 32.953 23.886 17.33 2.231 34.657 4.46 51.986 6.688-3.393-5.607-4.18-9.35-10.312-10.959-8.904-2.341-17.812-4.683-26.717-7.023C31.94 18.182 15.97 13.984 0 9.786z" fill="#ffffff" data-fill-palette-color="accent"></path><path d="M63.108 66.207c10.413-2.219 20.826-4.439 31.241-6.66-2.028-3.346-2.034-5.359-5.827-5.189-6.158 0.273-12.314 0.549-18.471 0.822-11.343 0.506-22.686 1.014-34.028 1.518C37.298 58.064 54.94 67.947 63.108 66.207z" fill="#ffffff" data-fill-palette-color="accent"></path><path d="M87.682 90.213c5.725-3.719 7.262-7.721 10.519-13.807 3.651-6.824 1.257-7.844-2.821-14.596-0.417-0.688-5.842 0.232-6.453 0.904-0.745 0.818-0.248 5.455-0.294 6.496C88.315 76.211 87.998 83.213 87.682 90.213z" fill="#ffffff" data-fill-palette-color="accent"></path><path d="M86.35 63.447c-3.795 0.809-8.604 0.191-9.572 4.229-1.373 5.736-2.746 11.475-4.12 17.211C81.904 82.678 86.028 71.582 86.35 63.447z" fill="#ffffff" data-fill-palette-color="accent"></path><path d="M74.666 66.121c-9.148 1.953-8.956 4.611-12.879 13.18C68.007 78.711 73.811 71.941 74.666 66.121z" fill="#ffffff" data-fill-palette-color="accent"></path></svg></g></svg></g></svg></g><defs></defs></svg><rect width="395.52" height="118.7133461868923" fill="none" stroke="none" visibility="hidden"></rect></g></svg></g></svg>